<svg width="656" height="656" viewBox="0 0 656 656" fill="none" xmlns="http://www.w3.org/2000/svg">
<circle cx="328" cy="328" r="328" fill="white"/>
<path d="M310.757 307.007L225.848 392.441C225.848 392.441 201.332 395.859 172.032 378.102C127.186 350.924 123 304.617 123 304.617V168.401C123 168.401 127.186 147.847 146.32 140.918C163.063 134.856 179.208 145.1 179.208 145.1L307.768 273.55C307.768 273.55 313.747 280.719 313.747 290.278C313.747 302.825 310.757 307.007 310.757 307.007Z" fill="black"/>
<path d="M289.829 394.83H225.25L181.002 438.443C181.002 438.443 175.487 446.807 174.424 456.366C173.295 466.523 181.002 476.679 181.002 476.679L247.374 542.398C247.374 542.398 267.705 549.766 279.664 544.19C297.602 535.826 301.19 515.513 301.19 515.513V406.779C301.19 406.779 299.88 401.458 297.602 399.012C295.254 396.49 289.829 394.83 289.829 394.83Z" fill="black"/>
<path d="M344.243 307.729L429.152 393.163C429.152 393.163 453.668 396.582 482.968 378.825C527.814 351.646 532 305.34 532 305.34V169.123C532 169.123 527.814 148.57 508.68 141.641C491.937 135.578 475.792 145.823 475.792 145.823L347.232 274.273C347.232 274.273 341.253 281.442 341.253 291.001C341.253 303.547 344.243 307.729 344.243 307.729Z" fill="black"/>
<path d="M365.171 395.553H429.75L473.998 439.166C473.998 439.166 479.513 447.53 480.576 457.089C481.705 467.246 473.998 477.402 473.998 477.402L407.626 543.121C407.626 543.121 387.295 550.489 375.336 544.913C357.398 536.549 353.81 516.236 353.81 516.236V407.502C353.81 407.502 355.12 402.18 357.398 399.735C359.746 397.213 365.171 395.553 365.171 395.553Z" fill="black"/>
</svg>
